#!OML:ASF H:\Terrain\Patient Classification 1\Animal2\Wednesday\Animal2.ASF
:FULLY-SPECIFIED
:DEGREES
2973
root 21.7336 17.7545 -16.1624 189.037 -122.296 -189.939
lowerback -1.5384 -7.07517 -2.96659
upperback -13.016 -10.038 2.14841
thorax -12.3248 -4.61011 4.83273
lowerneck -9.384 6.08897 14.1707
upperneck 19.9242 8.69502 -13.8258
head 8.99423 3.80207 -6.20291
rclavicle -8.10048e-015 2.09718e-014
rhumerus -25.7032 -12.5877 -14.4083
rradius 65.1579
rwrist -50.7387
rhand -33.4427 13.4639
rfingers 7.12502
rthumb -6.64155 -16.4119
lclavicle -8.10048e-015 2.09718e-014
lhumerus -18.3535 -2.9056 24.9815
lradius 59.5218
lwrist 91.7087
lhand -21.5797 20.1341
lfingers 7.12502
lthumb 4.81458 50.0594
rfemur -15.0445 -4.18035 22.6943
rtibia 27.2808
rfoot 1.68221 30.2477
rtoes 49.0266
lfemur -3.92998 1.70808 -19.9151
ltibia 24.7109
lfoot -29.7028 23.5429
ltoes 11.0642
2974
root 21.7317 17.7548 -16.1579 189.097 -122.324 -189.993
lowerback -1.71528 -7.15293 -2.88453
upperback -12.9139 -10.1276 2.09616
thorax -12.1108 -4.67728 4.69781
lowerneck -9.33446 6.14617 14.3883
upperneck 20.022 8.74401 -13.7935
head 9.03588 3.84567 -6.22631
rclavicle 2.54569e-014 1.66482e-014
rhumerus -25.4353 -12.1854 -15.1454
rradius 64.0585
rwrist -49.9944
rhand -33.4911 12.9021
rfingers 7.12502
rthumb -6.68836 -16.9723
lclavicle 2.54569e-014 1.66482e-014
lhumerus -18.4238 -2.71628 24.8081
lradius 58.4101
lwrist 91.0767
lhand -21.6046 20.355
lfingers 7.12502
lthumb 4.79053 50.2808
rfemur -15.0178 -3.94964 22.6797
rtibia 27.2065
rfoot 1.98953 30.0583
rtoes 49.376
lfemur -3.96905 1.5801 -19.9129
ltibia 24.7922
lfoot -29.9789 23.5186
ltoes 11.6216
2975
root 21.7299 17.7548 -16.1514 189.461 -122.417 -190.464
lowerback -1.78399 -7.20823 -2.61682
upperback -12.8607 -10.1768 2.14801
thorax -12.0361 -4.72954 4.59836
lowerneck -9.25322 6.13552 14.5289
upperneck 20.1281 8.73154 -13.8451
head 9.06415 3.8469 -6.27651
rclavicle -3.94463e-014 -8.15017e-015
rhumerus -25.0121 -11.5668 -15.8377
rradius 62.7645
rwrist -49.9798
rhand -33.4262 12.6055
rfingers 7.12502
rthumb -6.62567 -17.2708
lclavicle -3.94463e-014 -8.15017e-015
lhumerus -18.5183 -2.68308 24.7939
lradius 57.2651
lwrist 91.0979
lhand -21.6022 20.3934
lfingers 7.12502
lthumb 4.79288 50.3191
rfemur -14.8947 -3.68633 22.9179
rtibia 27.1152
rfoot 2.02244 29.8535
rtoes 49.1239
lfemur -3.94938 1.39757 -19.6638
ltibia 24.8788
lfoot -30.329 23.5364
ltoes 11.4799
2976
root 21.729 17.7553 -16.1438 189.868 -122.508 -190.959
lowerback -1.87482 -7.27955 -2.30934
upperback -12.8317 -10.2464 2.22402
thorax -11.9784 -4.79413 4.50464
lowerneck -9.2434 6.11379 14.4668
upperneck 20.3059 8.70048 -13.7338
head 9.10994 3.83527 -6.23529
rclavicle -5.45415e-015 -5.11871e-015
rhumerus -24.4614 -10.8775 -16.6091
rradius 61.5114
rwrist -50.3909
rhand -33.2223 11.8747
rfingers 7.12502
rthumb -6.42879 -18.0077
lclavicle -5.45415e-015 -5.11871e-015
lhumerus -18.6879 -2.44649 24.8652
lradius 56.1729
lwrist 91.1866
lhand -21.7458 20.6967
lfingers 7.12502
lthumb 4.65426 50.6255
rfemur -14.8219 -3.66827 23.1847
rtibia 27.0242
rfoot 2.24537 29.8347
rtoes 48.9055
lfemur -3.95972 1.29734 -19.3879
ltibia 24.9634
lfoot -30.5332 23.5538
ltoes 11.6297
2977
root 21.7274 17.7546 -16.1381 189.98 -122.522 -191.076
lowerback -1.95445 -7.3093 -2.31284
upperback -12.8504 -10.2766 2.33309
thorax -11.9279 -4.80534 4.61224
lowerneck -9.20393 6.09541 14.2947
upperneck 20.4867 8.71653 -13.7131
head 9.15736 3.82849 -6.20318
rclavicle 3.15819e-014 6.16232e-015
rhumerus -24.0068 -10.6085 -17.1728
rradius 60.4469
rwrist -50.6533
rhand -32.6723 10.3877
rfingers 7.12502
rthumb -5.8978 -19.5103
lclavicle 3.15819e-014 6.16232e-015
lhumerus -18.8793 -1.95657 25.223
lradius 55.1209
lwrist 91.0742
lhand -21.8529 21.2966
lfingers 7.12502
lthumb 4.55082 51.2277
rfemur -14.8102 -3.57987 23.2306
rtibia 26.9718
rfoot 2.37556 29.7589
rtoes 48.9467
lfemur -3.98585 1.24211 -19.3394
ltibia 25.025
lfoot -30.5605 23.6787
ltoes 11.7422
2978
root 21.7281 17.7499 -16.1377 189.697 -122.521 -190.92
lowerback -1.77117 -7.27373 -2.58164
upperback -12.847 -10.2389 2.39575
thorax -11.9794 -4.74975 4.84489
lowerneck -9.20891 6.01304 13.9992
upperneck 20.6087 8.63067 -13.5846
head 9.16551 3.77418 -6.12029
rclavicle -1.82633e-014 -3.26504e-014
rhumerus -23.7774 -10.7122 -17.6255
rradius 59.637
rwrist -51.4392
rhand -32.252 9.01452
rfingers 7.12502
rthumb -5.49202 -20.8943
lclavicle -1.82633e-014 -3.26504e-014
lhumerus -18.9324 -1.55624 25.7355
lradius 54.1542
lwrist 91.13
lhand -22.06 21.9527
lfingers 7.12502
lthumb 4.35083 51.888
rfemur -14.648 -3.21687 23.1166
rtibia 26.9941
rfoot 2.22494 29.4609
rtoes 49.1135
lfemur -3.81461 1.14256 -19.4438
ltibia 25.0141
lfoot -30.3439 24.0133
ltoes 10.6127
2979
root 21.7314 17.7458 -16.1376 189.498 -122.505 -190.842
lowerback -1.64403 -7.23755 -2.73246
upperback -12.7978 -10.1934 2.41544
thorax -11.9723 -4.70824 4.95559
lowerneck -9.33653 5.92601 13.6721
upperneck 20.6912 8.50534 -13.3526
head 9.17166 3.70598 -5.99516
rclavicle 1.2424e-014 -2.98177e-014
rhumerus -23.5169 -10.7329 -18.296
rradius 59.0076
rwrist -52.7379
rhand -32.3765 7.77583
rfingers 7.12502
rthumb -5.61229 -22.1298
lclavicle 1.2424e-014 -2.98177e-014
lhumerus -18.9662 -0.726058 26.1892
lradius 53.3737
lwrist 91.1058
lhand -22.5395 22.9434
lfingers 7.12502
lthumb 3.88777 52.8877
rfemur -14.528 -2.96445 23.0433
rtibia 27.0336
rfoot 2.37509 29.2733
rtoes 49.4078
lfemur -3.67167 1.05005 -19.5101
ltibia 24.9789
lfoot -30.1577 24.3815
ltoes 8.98815
2980
root 21.7352 17.7472 -16.1319 189.41 -122.521 -190.755
lowerback -1.66133 -7.2283 -2.81031
upperback -12.7905 -10.1736 2.51467
thorax -11.9224 -4.68669 5.09569
lowerneck -9.5578 5.88897 13.4645
upperneck 20.8362 8.53309 -13.6159
head 9.26943 3.6651 -6.05435
rclavicle -2.55935e-014 4.64162e-014
rhumerus -23.0932 -10.8243 -18.8677
rradius 58.3035
rwrist -53.5007
rhand -32.0788 6.17188
rfingers 7.12502
rthumb -5.32479 -23.7412
lclavicle -2.55935e-014 4.64162e-014
lhumerus -19.1954 1.17148 26.8319
lradius 52.7081
lwrist 90.5957
lhand -22.88 24.3291
lfingers 7.12502
lthumb 3.55897 54.2791
rfemur -14.5095 -2.98806 22.9642
rtibia 27.0275
rfoot 2.43032 29.313
rtoes 49.2362
lfemur -3.66638 0.985122 -19.5918
ltibia 24.9931
lfoot -30.238 24.3064
ltoes 9.05807
2981
root 21.7383 17.7513 -16.1264 189.348 -122.577 -190.708
lowerback -1.66855 -7.18921 -2.86774
upperback -12.7981 -10.1153 2.59929
thorax -11.9065 -4.64758 5.21159
lowerneck -9.78602 5.85204 13.3059
upperneck 21.0385 8.57686 -13.9639
head 9.39781 3.62502 -6.15419
rclavicle 6.38596e-014 3.28989e-014
rhumerus -22.8075 -11.1188 -19.2856
rradius 57.551
rwrist -54.0032
rhand -31.2998 4.77236
rfingers 7.12502
rthumb -4.57261 -25.1583
lclavicle 6.38596e-014 3.28989e-014
lhumerus -19.1625 1.37138 27.4222
lradius 52.0679
lwrist 91.6432
lhand -23.5166 25.5169
lfingers 7.12502
lthumb 2.94422 55.4763
rfemur -14.438 -2.92519 22.922
rtibia 26.9651
rfoot 2.26079 29.2456
rtoes 49.0277
lfemur -3.67853 1.16323 -19.6099
ltibia 25.074
lfoot -30.1331 24.0489
ltoes 9.09941
2982
root 21.7398 17.7519 -16.1248 189.484 -122.572 -190.913
lowerback -1.75847 -7.12583 -2.72473
upperback -12.7194 -10.019 2.52028
thorax -11.8059 -4.62485 5.02344
lowerneck -9.91705 5.79828 13.3005
upperneck 21.1187 8.4851 -13.9246
head 9.434 3.58011 -6.15163
rclavicle 1.20265e-014 -4.42296e-014
rhumerus -22.784 -11.708 -20.0415
rradius 57.0304
rwrist -54.6533
rhand -30.9227 4.02291
rfingers 7.12502
rthumb -4.20847 -25.9153
lclavicle 1.20265e-014 -4.42296e-014
lhumerus -19.0686 1.9847 27.7708
lradius 51.6537
lwrist 92.2797
lhand -24.1783 26.3518
lfingers 7.12502
lthumb 2.30513 56.3191
rfemur -14.3443 -2.79868 23.0363
rtibia 26.8833
rfoot 2.20267 29.1255
rtoes 49.0286
lfemur -3.69851 1.39539 -19.4615
ltibia 25.1804
lfoot -29.8756 24.0599
ltoes 8.27799
